<svg id="svg10510" xmlns="http://www.w3.org/2000/svg" xmlns:xlink="http://www.w3.org/1999/xlink" viewBox="0 0 256 256"><defs><style>.cls-1,.cls-7,.cls-8{fill:none;}.cls-2{font-size:30px;fill:#4f4c4c;font-family:Arial-BoldMT, Arial;font-weight:700;}.cls-3{clip-path:url(#clip-path);}.cls-4{fill:#231f20;}.cls-5{fill:url(#New_Pattern_Swatch_1);}.cls-6{fill:#fff;}.cls-7{stroke:#231f20;}.cls-7,.cls-8{stroke-width:9.65px;}.cls-8{stroke:#fff;}</style><clipPath id="clip-path" transform="translate(0 -0.02)"><rect class="cls-1" width="256" height="256"/></clipPath><pattern id="New_Pattern_Swatch_1" data-name="New Pattern Swatch 1" y="-0.02" width="68.79" height="65.11" patternUnits="userSpaceOnUse" viewBox="0 0 68.79 65.11"><rect class="cls-1" width="68.79" height="65.11"/><text class="cls-2" transform="matrix(0.79, -0.62, 0.62, 0.79, 15.85, 56.21)">UE4</text></pattern></defs><title>Icon_Online</title><g id="layer1"><g class="cls-3"><g id="g9188"><g id="g9190"><path id="path9192" class="cls-4" d="M0,256H256V0H0Z" transform="translate(0 -0.02)"/><rect class="cls-5" x="8" y="7.98" width="240" height="240"/><path id="path9398" class="cls-6" d="M190.75,80.41A62.46,62.46,0,1,1,128.29,18a62.45,62.45,0,0,1,62.46,62.46" transform="translate(0 -0.02)"/><path id="path9400" class="cls-7" d="M140.63,33.63H141" transform="translate(0 -0.02)"/><path id="path9402" class="cls-7" d="M141.38,33.6l-.38,0" transform="translate(0 -0.02)"/><path id="path9404" class="cls-7" d="M139.08,33.69a77.84,77.84,0,0,0-32.47,8.92" transform="translate(0 -0.02)"/><path id="path9406" class="cls-7" d="M141.45,33.6h-.07" transform="translate(0 -0.02)"/><path id="path9408" class="cls-7" d="M176.81,42.55c-9.07-6-21.83-9.25-35.36-8.95" transform="translate(0 -0.02)"/><path id="path9410" class="cls-7" d="M139.08,33.69l1.55-.06" transform="translate(0 -0.02)"/><path id="path9412" class="cls-7" d="M73.28,85.28a88.58,88.58,0,0,0-2.81,19" transform="translate(0 -0.02)"/><path id="path9414" class="cls-7" d="M86.34,59.21a66.59,66.59,0,0,1,20.27-16.6" transform="translate(0 -0.02)"/><path id="path9416" class="cls-7" d="M86.34,59.21A68.72,68.72,0,0,0,73.28,85.28" transform="translate(0 -0.02)"/><path id="path9418" class="cls-7" d="M84.3,43a35.17,35.17,0,0,0,2,16.24" transform="translate(0 -0.02)"/><path id="path9420" class="cls-7" d="M173.84,84.52a52.88,52.88,0,0,1-19.76,9.18" transform="translate(0 -0.02)"/><path id="path9422" class="cls-7" d="M86.34,59.21a52.27,52.27,0,0,0,14.8,21" transform="translate(0 -0.02)"/><path id="path9424" class="cls-7" d="M127,93.66l-.29-.07a60.85,60.85,0,0,1-25.52-13.35" transform="translate(0 -0.02)"/><path id="path9426" class="cls-7" d="M127,93.66a58.25,58.25,0,0,0,27.13,0" transform="translate(0 -0.02)"/><path id="path9428" class="cls-7" d="M84.3,43a30.82,30.82,0,0,1,.62-3.43,27.76,27.76,0,0,1,1.8-5.07" transform="translate(0 -0.02)"/><path id="path9430" class="cls-7" d="M185.73,70.24a32,32,0,0,0,2.09-5.84,1.16,1.16,0,0,1,0-.18" transform="translate(0 -0.02)"/><path id="path9432" class="cls-7" d="M173.84,84.52a39,39,0,0,0,11.89-14.28" transform="translate(0 -0.02)"/><path id="path9434" class="cls-7" d="M134.87,64c.56.17,1.12.37,1.7.52a41.5,41.5,0,0,0,16.68.7" transform="translate(0 -0.02)"/><path id="path9436" class="cls-7" d="M117,54.34a47.8,47.8,0,0,1-10.41-11.73" transform="translate(0 -0.02)"/><path id="path9438" class="cls-7" d="M173.93,54.62A24.47,24.47,0,0,1,166.16,61" transform="translate(0 -0.02)"/><path id="path9440" class="cls-7" d="M153.25,65.17A39.65,39.65,0,0,0,166.16,61" transform="translate(0 -0.02)"/><path id="path9442" class="cls-7" d="M173.93,54.62a16.56,16.56,0,0,0,3.54-11.31" transform="translate(0 -0.02)"/><path id="path9444" class="cls-7" d="M117,54.34A52.55,52.55,0,0,0,134.87,64" transform="translate(0 -0.02)"/><path id="path9446" class="cls-7" d="M103.13,24c-.06.14-.1.3-.15.44" transform="translate(0 -0.02)"/><path id="path9448" class="cls-7" d="M106.61,42.61a29.11,29.11,0,0,1-4-9.67.2.2,0,0,1,0-.07" transform="translate(0 -0.02)"/><path id="path9450" class="cls-7" d="M103,24.39a17,17,0,0,0-.35,8.48" transform="translate(0 -0.02)"/><path id="path9452" class="cls-7" d="M118.65,121.42a72.59,72.59,0,0,1-27.94-14" transform="translate(0 -0.02)"/><path id="path9454" class="cls-7" d="M118.65,121.42c.17,0,.33.09.49.12A76.66,76.66,0,0,0,149.55,123" transform="translate(0 -0.02)"/><path id="path9456" class="cls-7" d="M70,58.65c.07-.37.14-.73.22-1.09" transform="translate(0 -0.02)"/><path id="path9458" class="cls-7" d="M90.71,107.46A61.67,61.67,0,0,1,73.28,85.28" transform="translate(0 -0.02)"/><path id="path9460" class="cls-7" d="M73.28,85.28c-3.89-8.64-5.2-17.85-3.3-26.63" transform="translate(0 -0.02)"/><path id="path9462" class="cls-7" d="M173.41,114a43.47,43.47,0,0,0,13.82-14.35" transform="translate(0 -0.02)"/><path id="path9464" class="cls-7" d="M173.41,114a60.3,60.3,0,0,1-23.86,9" transform="translate(0 -0.02)"/><path id="path9466" class="cls-7" d="M102,24.46a61.9,61.9,0,0,0-15.27,10" transform="translate(0 -0.02)"/><path id="path9468" class="cls-7" d="M103.13,24l-1.14.51" transform="translate(0 -0.02)"/><path id="path9470" class="cls-7" d="M162.19,29a62.33,62.33,0,0,1,15.28,14.28" transform="translate(0 -0.02)"/><path id="path9472" class="cls-7" d="M187.23,99.69A61.81,61.81,0,0,0,190,84.27" transform="translate(0 -0.02)"/><path id="path9474" class="cls-7" d="M177.47,43.31a62.13,62.13,0,0,1,10.39,20.91" transform="translate(0 -0.02)"/><path id="path9476" class="cls-7" d="M70,58.65A62.05,62.05,0,0,1,86.72,34.47" transform="translate(0 -0.02)"/><path id="path9478" class="cls-7" d="M190,84.27c.06-1.12.1-2.24.1-3.37a62.43,62.43,0,0,0-2.28-16.68" transform="translate(0 -0.02)"/><path id="path9480" class="cls-7" d="M70,58.65A62.13,62.13,0,0,0,170.4,126.3" transform="translate(0 -0.02)"/><path id="path9482" class="cls-7" d="M187.23,99.69A62,62,0,0,1,170.4,126.3" transform="translate(0 -0.02)"/><path id="path9484" class="cls-7" d="M103.13,24A62.1,62.1,0,0,1,162.19,29" transform="translate(0 -0.02)"/><path id="path9486" class="cls-7" d="M103,24.39a64.09,64.09,0,0,1,37.87,9.13" transform="translate(0 -0.02)"/><path id="path9488" class="cls-7" d="M140.85,33.52l.15.1" transform="translate(0 -0.02)"/><path id="path9490" class="cls-7" d="M141.83,34.11l-.49-.29" transform="translate(0 -0.02)"/><path id="path9492" class="cls-7" d="M141,33.62l.34.2" transform="translate(0 -0.02)"/><path id="path9494" class="cls-7" d="M173.84,84.52A78.07,78.07,0,0,0,166.16,61" transform="translate(0 -0.02)"/><path id="path9496" class="cls-7" d="M166.16,61a69.47,69.47,0,0,0-22.7-25.79" transform="translate(0 -0.02)"/><path id="path9498" class="cls-7" d="M173.41,114a88,88,0,0,0,.43-29.52" transform="translate(0 -0.02)"/><path id="path9500" class="cls-7" d="M143.46,35.19c-.54-.36-1.08-.73-1.63-1.08" transform="translate(0 -0.02)"/><path id="path9502" class="cls-7" d="M103,24.39l-1,.07" transform="translate(0 -0.02)"/><path id="path9504" class="cls-7" d="M173.41,114a99.92,99.92,0,0,1-3,12.26" transform="translate(0 -0.02)"/><path id="path9506" class="cls-7" d="M140.85,33.52l-.22.11" transform="translate(0 -0.02)"/><path id="path9508" class="cls-7" d="M140.85,33.52l.39-.2" transform="translate(0 -0.02)"/><path id="path9510" class="cls-7" d="M141.44,33.22l-.2.1" transform="translate(0 -0.02)"/><path id="path9512" class="cls-7" d="M90.71,107.46a172,172,0,0,1,10.43-27.22" transform="translate(0 -0.02)"/><path id="path9514" class="cls-7" d="M117,54.34a143.69,143.69,0,0,0-15.88,25.9" transform="translate(0 -0.02)"/><path id="path9516" class="cls-7" d="M140,34C131.5,38.49,123.79,45.7,117,54.34" transform="translate(0 -0.02)"/><path id="path9518" class="cls-7" d="M162.19,29h.2" transform="translate(0 -0.02)"/><path id="path9520" class="cls-7" d="M140.63,33.63,140,34" transform="translate(0 -0.02)"/><path id="path9522" class="cls-7" d="M161.33,28.12c-7.28-.59-13.37,1.9-19.89,5.1" transform="translate(0 -0.02)"/><path id="path9524" class="cls-7" d="M90.71,107.46a113.21,113.21,0,0,0-4,19.77" transform="translate(0 -0.02)"/><path id="path9526" class="cls-7" d="M153.25,65.17c-1.67-11.6-5.18-22.11-10.93-30.39" transform="translate(0 -0.02)"/><path id="path9528" class="cls-7" d="M141.45,33.6l-.06-.07" transform="translate(0 -0.02)"/><path id="path9530" class="cls-7" d="M123.57,18.93c7.71,2.89,13,8.13,17.67,14.39" transform="translate(0 -0.02)"/><path id="path9532" class="cls-7" d="M154.08,93.7a134.68,134.68,0,0,0-.83-28.53" transform="translate(0 -0.02)"/><path id="path9534" class="cls-7" d="M141.24,33.32l.15.21" transform="translate(0 -0.02)"/><path id="path9536" class="cls-7" d="M149.55,123a180.8,180.8,0,0,0,4.53-29.3" transform="translate(0 -0.02)"/><path id="path9538" class="cls-7" d="M144.36,140.74A178.49,178.49,0,0,0,149.55,123" transform="translate(0 -0.02)"/><path id="path9540" class="cls-7" d="M141.83,34.11c.15.23.33.44.49.67" transform="translate(0 -0.02)"/><path id="path9542" class="cls-7" d="M141.83,34.11l-.38-.51" transform="translate(0 -0.02)"/><path id="path9544" class="cls-7" d="M139.08,33.69,140,34" transform="translate(0 -0.02)"/><path id="path9546" class="cls-7" d="M139.08,33.69c-11.92-3.67-24.6-4.45-36.45-.82" transform="translate(0 -0.02)"/><path id="path9548" class="cls-7" d="M143.46,35.19l-1.14-.41" transform="translate(0 -0.02)"/><path id="path9550" class="cls-7" d="M173.93,54.62a87.28,87.28,0,0,0-30.47-19.43" transform="translate(0 -0.02)"/><path id="path9552" class="cls-7" d="M142.32,34.78l-1.1-.38" transform="translate(0 -0.02)"/><path id="path9554" class="cls-7" d="M185.73,70.24a37,37,0,0,1,4.31,14" transform="translate(0 -0.02)"/><path id="path9556" class="cls-7" d="M84.3,43a66.41,66.41,0,0,0-14.7,18.2" transform="translate(0 -0.02)"/><path id="path9558" class="cls-7" d="M173.93,54.62a64,64,0,0,1,11.8,15.62" transform="translate(0 -0.02)"/><path id="path9560" class="cls-7" d="M84.3,43a51.67,51.67,0,0,1,18.33-10.1" transform="translate(0 -0.02)"/><path id="path9562" class="cls-7" d="M140,34l1.26.42" transform="translate(0 -0.02)"/><path id="path9564" class="cls-7" d="M127,93.66c-2.78,9.81-5.64,19.39-8.3,27.76" transform="translate(0 -0.02)"/><path id="path9566" class="cls-7" d="M141.39,33.53s0,0,0,.07" transform="translate(0 -0.02)"/><path id="path9568" class="cls-7" d="M141.34,33.82c0,.19-.07.38-.12.58" transform="translate(0 -0.02)"/><path id="path9570" class="cls-7" d="M134.87,64c2.85-11.49,5.14-21.89,6.32-29.36a1.25,1.25,0,0,0,0-.19" transform="translate(0 -0.02)"/><path id="path9572" class="cls-7" d="M142.31,20.82a57.9,57.9,0,0,1-.87,12.4" transform="translate(0 -0.02)"/><path id="path9574" class="cls-7" d="M127,93.66c2.83-10,5.56-20.22,7.92-29.71" transform="translate(0 -0.02)"/><path id="path9576" class="cls-7" d="M118.65,121.42c-2.44,7.68-4.71,14.36-6.59,19.28" transform="translate(0 -0.02)"/><path id="path9578" class="cls-7" d="M141.34,33.82c0-.07,0-.14,0-.22" transform="translate(0 -0.02)"/><path id="path9580" class="cls-7" d="M141.44,33.22a2.87,2.87,0,0,0-.05.31" transform="translate(0 -0.02)"/><path id="path9582" class="cls-6" d="M45.54,196.5H88.32V169H45.54Z" transform="translate(0 -0.02)"/><path id="path9584" class="cls-6" d="M106.23,196.5H149V169H106.23Z" transform="translate(0 -0.02)"/><path id="path9586" class="cls-4" d="M46.49,194.23H86.16V170.47H46.49Zm-2.17,4.38a2.24,2.24,0,0,1-1.55-.64h0a2.25,2.25,0,0,1-.64-1.55V168.28a2.22,2.22,0,0,1,.64-1.56h0a2.27,2.27,0,0,1,1.55-.63h44a2.24,2.24,0,0,1,1.55.64h0a2.18,2.18,0,0,1,.64,1.55v28.14a2.25,2.25,0,0,1-.64,1.55h0a2.24,2.24,0,0,1-1.55.64h-44" transform="translate(0 -0.02)"/><path id="path9588" class="cls-4" d="M60.6,204.09v-4.38H72.05v4.38H60.6" transform="translate(0 -0.02)"/><path id="path9590" class="cls-4" d="M49.14,207.38a1.13,1.13,0,0,1-1.15-1.1h0a1.11,1.11,0,0,1,1.15-1.09H83.53a1.11,1.11,0,0,1,1.14,1.09h0a1.13,1.13,0,0,1-1.14,1.1H49.14" transform="translate(0 -0.02)"/><path id="path9592" class="cls-6" d="M168.53,196.5h42.78V169H168.53V196.5Z" transform="translate(0 -0.02)"/><path id="path9594" class="cls-4" d="M108.16,194.23h39.67V170.47H108.16ZM106,198.61a2.23,2.23,0,0,1-1.54-.64h0a2.25,2.25,0,0,1-.64-1.55V168.28a2.22,2.22,0,0,1,.64-1.56h0a2.27,2.27,0,0,1,1.54-.63h44a2.2,2.2,0,0,1,1.54.64h0a2.18,2.18,0,0,1,.64,1.55v28.14a2.25,2.25,0,0,1-.64,1.55h0a2.2,2.2,0,0,1-1.54.64H106" transform="translate(0 -0.02)"/><path id="path9596" class="cls-4" d="M122.27,204.09v-4.38h11.45v4.38H122.27" transform="translate(0 -0.02)"/><path id="path9598" class="cls-4" d="M110.81,207.38a1.13,1.13,0,0,1-1.15-1.1h0a1.11,1.11,0,0,1,1.15-1.09H145.2a1.11,1.11,0,0,1,1.14,1.09h0a1.13,1.13,0,0,1-1.14,1.1H110.81" transform="translate(0 -0.02)"/><path id="path9600" class="cls-4" d="M169.83,194.23h39.66V170.47H169.83Zm-2.18,4.38a2.24,2.24,0,0,1-1.55-.64h0a2.29,2.29,0,0,1-.64-1.55V168.28a2.26,2.26,0,0,1,.64-1.56h0a2.27,2.27,0,0,1,1.55-.63h44a2.21,2.21,0,0,1,1.54.64h0a2.18,2.18,0,0,1,.64,1.55v28.14a2.25,2.25,0,0,1-.64,1.55h0a2.21,2.21,0,0,1-1.54.64h-44" transform="translate(0 -0.02)"/><path id="path9602" class="cls-4" d="M183.94,204.09v-4.38h11.45v4.38H183.94" transform="translate(0 -0.02)"/><path id="path9604" class="cls-4" d="M172.47,207.38a1.12,1.12,0,0,1-1.14-1.1h0a1.1,1.1,0,0,1,1.14-1.09h34.39a1.11,1.11,0,0,1,1.14,1.09h0a1.13,1.13,0,0,1-1.14,1.1H172.47" transform="translate(0 -0.02)"/><path id="path9606" class="cls-7" d="M66.33,166.09v-8.76H189.67v8.76" transform="translate(0 -0.02)"/><path id="path9608" class="cls-7" d="M128,144.19v21.9" transform="translate(0 -0.02)"/><path id="path9610" class="cls-4" d="M190.75,80.41A62.46,62.46,0,1,1,128.29,18a62.45,62.45,0,0,1,62.46,62.46" transform="translate(0 -0.02)"/><path id="path9612" class="cls-8" d="M140.63,33.64l.37,0" transform="translate(0 -0.02)"/><path id="path9614" class="cls-8" d="M141.38,33.61H141" transform="translate(0 -0.02)"/><path id="path9616" class="cls-8" d="M139.08,33.7a77.67,77.67,0,0,0-32.47,8.91" transform="translate(0 -0.02)"/><path id="path9618" class="cls-8" d="M141.45,33.6h-.07" transform="translate(0 -0.02)"/><path id="path9620" class="cls-8" d="M176.81,42.55c-9.07-6-21.83-9.25-35.36-8.95" transform="translate(0 -0.02)"/><path id="path9622" class="cls-8" d="M139.08,33.7c.52,0,1-.05,1.55-.06" transform="translate(0 -0.02)"/><path id="path9624" class="cls-8" d="M73.28,85.28a88.48,88.48,0,0,0-2.81,19" transform="translate(0 -0.02)"/><path id="path9626" class="cls-8" d="M86.34,59.21a66.59,66.59,0,0,1,20.27-16.6" transform="translate(0 -0.02)"/><path id="path9628" class="cls-8" d="M86.34,59.21A68.72,68.72,0,0,0,73.28,85.28" transform="translate(0 -0.02)"/><path id="path9630" class="cls-8" d="M84.3,43a35.17,35.17,0,0,0,2,16.24" transform="translate(0 -0.02)"/><path id="path9632" class="cls-8" d="M173.84,84.52a52.88,52.88,0,0,1-19.76,9.18" transform="translate(0 -0.02)"/><path id="path9634" class="cls-8" d="M86.34,59.21a52.27,52.27,0,0,0,14.8,21" transform="translate(0 -0.02)"/><path id="path9636" class="cls-8" d="M127,93.66l-.29-.07a60.85,60.85,0,0,1-25.52-13.35" transform="translate(0 -0.02)"/><path id="path9638" class="cls-8" d="M127,93.66a58.25,58.25,0,0,0,27.13,0" transform="translate(0 -0.02)"/><path id="path9640" class="cls-8" d="M84.3,43a31.25,31.25,0,0,1,.62-3.43,27.76,27.76,0,0,1,1.8-5.07" transform="translate(0 -0.02)"/><path id="path9642" class="cls-8" d="M185.73,70.24a31.75,31.75,0,0,0,2.09-5.84,1.16,1.16,0,0,1,0-.18" transform="translate(0 -0.02)"/><path id="path9644" class="cls-8" d="M173.84,84.52a39,39,0,0,0,11.89-14.28" transform="translate(0 -0.02)"/><path id="path9646" class="cls-8" d="M134.87,64c.56.17,1.12.36,1.7.52a41.68,41.68,0,0,0,16.68.7" transform="translate(0 -0.02)"/><path id="path9648" class="cls-8" d="M117,54.34a48,48,0,0,1-10.41-11.73" transform="translate(0 -0.02)"/><path id="path9650" class="cls-8" d="M173.93,54.62A24.6,24.6,0,0,1,166.16,61" transform="translate(0 -0.02)"/><path id="path9652" class="cls-8" d="M153.25,65.17A39.89,39.89,0,0,0,166.16,61" transform="translate(0 -0.02)"/><path id="path9654" class="cls-8" d="M173.93,54.62a16.55,16.55,0,0,0,3.54-11.31" transform="translate(0 -0.02)"/><path id="path9656" class="cls-8" d="M117,54.34A52.38,52.38,0,0,0,134.87,64" transform="translate(0 -0.02)"/><path id="path9658" class="cls-8" d="M103.13,24c-.06.15-.1.3-.15.44" transform="translate(0 -0.02)"/><path id="path9660" class="cls-8" d="M106.61,42.61a29.15,29.15,0,0,1-4-9.68s0,0,0-.06" transform="translate(0 -0.02)"/><path id="path9662" class="cls-8" d="M103,24.39a17,17,0,0,0-.35,8.48" transform="translate(0 -0.02)"/><path id="path9664" class="cls-8" d="M118.65,121.41a72.43,72.43,0,0,1-27.94-14" transform="translate(0 -0.02)"/><path id="path9666" class="cls-8" d="M118.65,121.41l.49.13A77,77,0,0,0,149.55,123" transform="translate(0 -0.02)"/><path id="path9668" class="cls-8" d="M70,58.64c.07-.35.14-.72.22-1.08" transform="translate(0 -0.02)"/><path id="path9670" class="cls-8" d="M90.71,107.46A61.5,61.5,0,0,1,73.28,85.28" transform="translate(0 -0.02)"/><path id="path9672" class="cls-8" d="M73.28,85.28c-3.89-8.64-5.2-17.85-3.3-26.64" transform="translate(0 -0.02)"/><path id="path9674" class="cls-8" d="M173.41,114A43.44,43.44,0,0,0,187.23,99.7" transform="translate(0 -0.02)"/><path id="path9676" class="cls-8" d="M173.41,114a60.46,60.46,0,0,1-23.86,9" transform="translate(0 -0.02)"/><path id="path9678" class="cls-8" d="M102,24.46a61.9,61.9,0,0,0-15.27,10" transform="translate(0 -0.02)"/><path id="path9680" class="cls-8" d="M103.13,24c-.39.16-.76.34-1.14.51" transform="translate(0 -0.02)"/><path id="path9682" class="cls-8" d="M162.19,29a62.56,62.56,0,0,1,15.28,14.29" transform="translate(0 -0.02)"/><path id="path9684" class="cls-8" d="M187.23,99.7A62,62,0,0,0,190,84.28" transform="translate(0 -0.02)"/><path id="path9686" class="cls-8" d="M177.47,43.31a62.13,62.13,0,0,1,10.39,20.91" transform="translate(0 -0.02)"/><path id="path9688" class="cls-8" d="M70,58.64A62.09,62.09,0,0,1,86.72,34.47" transform="translate(0 -0.02)"/><path id="path9690" class="cls-8" d="M190,84.28c.06-1.13.1-2.25.1-3.38a62.43,62.43,0,0,0-2.28-16.68" transform="translate(0 -0.02)"/><path id="path9692" class="cls-8" d="M70,58.64A62.13,62.13,0,0,0,170.4,126.3" transform="translate(0 -0.02)"/><path id="path9694" class="cls-8" d="M187.23,99.7a62,62,0,0,1-16.83,26.6" transform="translate(0 -0.02)"/><path id="path9696" class="cls-8" d="M103.13,24A62.13,62.13,0,0,1,162.19,29" transform="translate(0 -0.02)"/><path id="path9698" class="cls-8" d="M103,24.39a64.09,64.09,0,0,1,37.87,9.13" transform="translate(0 -0.02)"/><path id="path9700" class="cls-8" d="M140.85,33.52l.15.1" transform="translate(0 -0.02)"/><path id="path9702" class="cls-8" d="M141.83,34.11c-.17-.09-.33-.19-.49-.29" transform="translate(0 -0.02)"/><path id="path9704" class="cls-8" d="M141,33.62l.34.2" transform="translate(0 -0.02)"/><path id="path9706" class="cls-8" d="M173.84,84.52A78,78,0,0,0,166.16,61" transform="translate(0 -0.02)"/><path id="path9708" class="cls-8" d="M166.16,61a69.47,69.47,0,0,0-22.7-25.79" transform="translate(0 -0.02)"/><path id="path9710" class="cls-8" d="M173.41,114a88,88,0,0,0,.43-29.52" transform="translate(0 -0.02)"/><path id="path9712" class="cls-8" d="M143.46,35.19c-.54-.37-1.08-.73-1.63-1.08" transform="translate(0 -0.02)"/><path id="path9714" class="cls-8" d="M103,24.39l-1,.07" transform="translate(0 -0.02)"/><path id="path9716" class="cls-8" d="M173.41,114a100.36,100.36,0,0,1-3,12.26" transform="translate(0 -0.02)"/><path id="path9718" class="cls-8" d="M140.85,33.52a1.55,1.55,0,0,0-.22.12" transform="translate(0 -0.02)"/><path id="path9720" class="cls-8" d="M140.85,33.52l.39-.2" transform="translate(0 -0.02)"/><path id="path9722" class="cls-8" d="M141.44,33.23l-.2.09" transform="translate(0 -0.02)"/><path id="path9724" class="cls-8" d="M90.71,107.46a172,172,0,0,1,10.43-27.22" transform="translate(0 -0.02)"/><path id="path9726" class="cls-8" d="M117,54.34a143.69,143.69,0,0,0-15.88,25.9" transform="translate(0 -0.02)"/><path id="path9728" class="cls-8" d="M140,34C131.5,38.5,123.79,45.7,117,54.34" transform="translate(0 -0.02)"/><path id="path9730" class="cls-8" d="M162.19,29h.2" transform="translate(0 -0.02)"/><path id="path9732" class="cls-8" d="M140.63,33.64,140,34" transform="translate(0 -0.02)"/><path id="path9734" class="cls-8" d="M161.33,28.12c-7.28-.59-13.37,1.9-19.89,5.11" transform="translate(0 -0.02)"/><path id="path9736" class="cls-8" d="M90.71,107.46a113.21,113.21,0,0,0-4,19.77" transform="translate(0 -0.02)"/><path id="path9738" class="cls-8" d="M153.25,65.17c-1.67-11.6-5.18-22.11-10.93-30.39" transform="translate(0 -0.02)"/><path id="path9740" class="cls-8" d="M141.45,33.6l-.06-.07" transform="translate(0 -0.02)"/><path id="path9742" class="cls-8" d="M123.57,18.93c7.71,2.89,13,8.13,17.67,14.39" transform="translate(0 -0.02)"/><path id="path9744" class="cls-8" d="M154.08,93.7a134.66,134.66,0,0,0-.83-28.53" transform="translate(0 -0.02)"/><path id="path9746" class="cls-8" d="M141.24,33.32l.15.21" transform="translate(0 -0.02)"/><path id="path9748" class="cls-8" d="M149.55,123a181.1,181.1,0,0,0,4.53-29.31" transform="translate(0 -0.02)"/><path id="path9750" class="cls-8" d="M144.36,140.73A178.88,178.88,0,0,0,149.55,123" transform="translate(0 -0.02)"/><path id="path9752" class="cls-8" d="M141.83,34.11c.15.23.33.44.49.67" transform="translate(0 -0.02)"/><path id="path9754" class="cls-8" d="M141.83,34.11l-.38-.51" transform="translate(0 -0.02)"/><path id="path9756" class="cls-8" d="M139.08,33.7c.29.08.59.18.88.28" transform="translate(0 -0.02)"/><path id="path9758" class="cls-8" d="M139.08,33.7c-11.92-3.68-24.6-4.47-36.45-.83" transform="translate(0 -0.02)"/><path id="path9760" class="cls-8" d="M143.46,35.19l-1.14-.41" transform="translate(0 -0.02)"/><path id="path9762" class="cls-8" d="M173.93,54.62a87.43,87.43,0,0,0-30.47-19.43" transform="translate(0 -0.02)"/><path id="path9764" class="cls-8" d="M142.32,34.78l-1.1-.38" transform="translate(0 -0.02)"/><path id="path9766" class="cls-8" d="M185.73,70.24a37,37,0,0,1,4.31,14" transform="translate(0 -0.02)"/><path id="path9768" class="cls-8" d="M84.3,43A66.51,66.51,0,0,0,69.6,61.16" transform="translate(0 -0.02)"/><path id="path9770" class="cls-8" d="M173.93,54.62a64,64,0,0,1,11.8,15.62" transform="translate(0 -0.02)"/><path id="path9772" class="cls-8" d="M84.3,43a51.67,51.67,0,0,1,18.33-10.1" transform="translate(0 -0.02)"/><path id="path9774" class="cls-8" d="M140,34l1.26.42" transform="translate(0 -0.02)"/><path id="path9776" class="cls-8" d="M127,93.66c-2.78,9.81-5.64,19.39-8.3,27.75" transform="translate(0 -0.02)"/><path id="path9778" class="cls-8" d="M141.39,33.53s0,0,0,.08" transform="translate(0 -0.02)"/><path id="path9780" class="cls-8" d="M141.34,33.82c0,.2-.07.39-.12.58" transform="translate(0 -0.02)"/><path id="path9782" class="cls-8" d="M134.87,64c2.85-11.49,5.14-21.88,6.32-29.36a1.25,1.25,0,0,0,0-.19" transform="translate(0 -0.02)"/><path id="path9784" class="cls-8" d="M142.31,20.82a58,58,0,0,1-.87,12.41" transform="translate(0 -0.02)"/><path id="path9786" class="cls-8" d="M127,93.66c2.83-10,5.56-20.23,7.92-29.71" transform="translate(0 -0.02)"/><path id="path9788" class="cls-8" d="M118.65,121.41c-2.44,7.69-4.71,14.37-6.59,19.29" transform="translate(0 -0.02)"/><path id="path9790" class="cls-8" d="M141.34,33.82c0-.07,0-.14,0-.21" transform="translate(0 -0.02)"/><path id="path9792" class="cls-8" d="M141.44,33.23a2.34,2.34,0,0,0-.05.3" transform="translate(0 -0.02)"/><path id="path9794" class="cls-4" d="M45.54,196.49H88.32V169H45.54Z" transform="translate(0 -0.02)"/><path id="path9796" class="cls-4" d="M106.23,196.49H149V169H106.23Z" transform="translate(0 -0.02)"/><path id="path9798" class="cls-6" d="M46.49,194.23H86.16V170.46H46.49Zm-2.17,4.37a2.2,2.2,0,0,1-1.55-.64h0a2.19,2.19,0,0,1-.64-1.54V168.27a2.17,2.17,0,0,1,.64-1.54h0a2.25,2.25,0,0,1,1.55-.65h44a2.25,2.25,0,0,1,1.55.65h0a2.17,2.17,0,0,1,.64,1.54v28.15a2.19,2.19,0,0,1-.64,1.54h0a2.2,2.2,0,0,1-1.55.64h-44" transform="translate(0 -0.02)"/><path id="path9800" class="cls-6" d="M60.6,204.09v-4.37H72.05v4.37H60.6" transform="translate(0 -0.02)"/><path id="path9802" class="cls-6" d="M49.14,207.37A1.12,1.12,0,0,1,48,206.28h0a1.13,1.13,0,0,1,1.15-1.1H83.53a1.13,1.13,0,0,1,1.14,1.1h0a1.12,1.12,0,0,1-1.14,1.09H49.14" transform="translate(0 -0.02)"/><path id="path9804" class="cls-4" d="M168.53,196.49h42.78V169H168.53v27.53Z" transform="translate(0 -0.02)"/><path id="path9806" class="cls-6" d="M108.16,194.23h39.67V170.46H108.16ZM106,198.6a2.19,2.19,0,0,1-1.54-.64h0a2.19,2.19,0,0,1-.64-1.54V168.27a2.17,2.17,0,0,1,.64-1.54h0a2.24,2.24,0,0,1,1.54-.65h44a2.21,2.21,0,0,1,1.54.65h0a2.17,2.17,0,0,1,.64,1.54v28.15a2.19,2.19,0,0,1-.64,1.54h0a2.15,2.15,0,0,1-1.54.64H106" transform="translate(0 -0.02)"/><path id="path9808" class="cls-6" d="M122.27,204.09v-4.37h11.45v4.37H122.27" transform="translate(0 -0.02)"/><path id="path9810" class="cls-6" d="M110.81,207.37a1.12,1.12,0,0,1-1.15-1.09h0a1.13,1.13,0,0,1,1.15-1.1H145.2a1.13,1.13,0,0,1,1.14,1.1h0a1.12,1.12,0,0,1-1.14,1.09H110.81" transform="translate(0 -0.02)"/><path id="path9812" class="cls-6" d="M169.83,194.23h39.66V170.46H169.83Zm-2.18,4.37a2.2,2.2,0,0,1-1.55-.64h0a2.23,2.23,0,0,1-.64-1.54V168.27a2.21,2.21,0,0,1,.64-1.54h0a2.25,2.25,0,0,1,1.55-.65h44a2.22,2.22,0,0,1,1.54.65h0a2.17,2.17,0,0,1,.64,1.54v28.15a2.19,2.19,0,0,1-.64,1.54h0a2.17,2.17,0,0,1-1.54.64h-44" transform="translate(0 -0.02)"/><path id="path9814" class="cls-6" d="M183.94,204.09v-4.37h11.45v4.37H183.94" transform="translate(0 -0.02)"/><path id="path9816" class="cls-6" d="M172.47,207.37a1.11,1.11,0,0,1-1.14-1.09h0a1.12,1.12,0,0,1,1.14-1.1h34.39a1.13,1.13,0,0,1,1.14,1.1h0a1.12,1.12,0,0,1-1.14,1.09H172.47" transform="translate(0 -0.02)"/><path id="path9818" class="cls-8" d="M66.33,166.08v-8.75H189.67v8.75" transform="translate(0 -0.02)"/><path id="path9820" class="cls-8" d="M128,144.19v21.89" transform="translate(0 -0.02)"/><path id="path9822" class="cls-4" d="M250.88,250.9H5.12V5.14H250.88ZM0,0V256H256V0H0" transform="translate(0 -0.02)"/><path id="path9824" class="cls-4" d="M0,256H256v-41H0Z" transform="translate(0 -0.02)"/><path id="path9826" class="cls-6" d="M84.72,241.24c0,1.66.7,2.31,1.7,2.31s1.69-.65,1.69-2.31V228.71c0-1.65-.7-2.3-1.69-2.3s-1.7.65-1.7,2.3Zm-6.34-14.37c.92-4.46,3.92-6.15,8-6.15s7.11,1.69,8,6.15a45.21,45.21,0,0,1,.42,8.11,45.21,45.21,0,0,1-.42,8.11c-.92,4.46-3.92,6.15-8,6.15s-7.12-1.69-8-6.15A45.21,45.21,0,0,1,78,235a45.21,45.21,0,0,1,.42-8.11" transform="translate(0 -0.02)"/><path id="path9828" class="cls-6" d="M97.62,248.78v-27.6h6.19L108,233.4h.07V221.18h5.54v27.6h-6l-4.38-14.3h-.07v14.3H97.62" transform="translate(0 -0.02)"/><path id="path9830" class="cls-6" d="M116.82,248.78v-27.6h6.46v21.68h8.3v5.92H116.82" transform="translate(0 -0.02)"/><path id="path9832" class="cls-6" d="M134.37,248.78h6.46v-27.6h-6.46Z" transform="translate(0 -0.02)"/><path id="path9834" class="cls-6" d="M144.55,248.78v-27.6h6.19l4.19,12.22H155V221.18h5.54v27.6h-6l-4.38-14.3h-.08v14.3h-5.53" transform="translate(0 -0.02)"/><path id="path9836" class="cls-6" d="M163.75,248.78v-27.6h14v5.69H170.2v4.69h6.23v5.92H170.2v5.38h7.92v5.92H163.75" transform="translate(0 -0.02)"/><path id="path9838" class="cls-1" d="M245.76,25h-2.38V13.39h-.07L239.23,25h-1.94l-3.88-11.61h-.07V25H231V10.26h3.78l3.67,11h.07l3.57-11h3.71V25Zm-16.5-14.74v1.91h-4V25h-2.38V12.17h-4.05V10.26h10.48" transform="translate(0 -0.02)"/></g></g></g></g></svg>